<?xml version="1.0" standalone="no"?>
<!DOCTYPE svg PUBLIC "-//W3C//DTD SVG 20010904//EN"
 "http://www.w3.org/TR/2001/REC-SVG-20010904/DTD/svg10.dtd">
<svg version="1.0" xmlns="http://www.w3.org/2000/svg"
 width="225.000000pt" height="225.000000pt" viewBox="0 0 225.000000 225.000000"
 preserveAspectRatio="xMidYMid meet">
<metadata>
Created by potrace 1.16, written by Peter Selinger 2001-2019
</metadata>
<g transform="translate(0.000000,225.000000) scale(0.100000,-0.100000)"
fill="#000000" stroke="none">
<path d="M956 1633 c-3 -10 -33 -117 -66 -238 -107 -388 -199 -719 -209 -752
-5 -18 -6 -35 -3 -37 4 -2 70 -4 147 -3 l140 2 57 200 c148 524 181 642 188
670 17 65 38 141 45 158 7 16 -4 17 -143 17 -135 0 -151 -2 -156 -17z"/>
<path d="M1200 700 l0 -90 185 0 185 0 0 90 0 90 -185 0 -185 0 0 -90z"/>
</g>
</svg>
